@startuml
'https://plantuml.com/class-diagram

interface "ActiveAccountUI" as UI
class "ActiveAccountController" as Controller {
activeAccount (email : String) : boolean
}

class "IT Company" as IT << (S,#FF7700) Singleton >>{
getAccountStore() : AccountStore
}

class "AccountStore" as Store {
findAccountByEmail(email : String) : Account
}
class "Account" as Account {
email : String
isActive: boolean
activeAccount (email : String) : boolean
}


UI "1" -[dashed]-> "1" Controller
Controller "1" -[dashed]-> "1" IT
IT "1"--> "allAccountStore 1" Store
Account "arrayListAccount 0..*" --o "1" Store
Controller "1" -[dashed]-> "1" Account
Controller "1" -[dashed]-> "1" Store
@enduml